Point(54) = {0.333333,0.666667,0.666667,0.100000};
Point(52) = {0.666667,0.666667,0.666667,0.100000};
Point(50) = {0.666667,0.333333,0.666667,0.100000};
Point(48) = {0.333333,0.333333,0.666667,0.100000};
Point(38) = {0.333333,0.666667,0.333333,0.100000};
Point(40) = {0.666667,0.666667,0.333333,0.100000};
Point(36) = {0.666667,0.333333,0.333333,0.100000};
Point(35) = {0.333333,0.333333,0.333333,0.100000};
Point(19) = {0.000000,1.000000,1.000000,0.100000};
Point(17) = {1.000000,1.000000,1.000000,0.100000};
Point(15) = {1.000000,0.000000,1.000000,0.100000};
Point(13) = {0.000000,0.000000,1.000000,0.100000};
Point(3) = {0.000000,1.000000,0.000000,0.100000};
Point(5) = {1.000000,1.000000,0.000000,0.100000};
Point(1) = {1.000000,0.000000,0.000000,0.100000};
Point(0) = {0.000000,0.000000,0.000000,0.100000};
Line(55) = {38,54};
Line(53) = {40,52};
Line(49) = {35,48};
Line(51) = {36,50};
Line(66) = {48,54};
Line(63) = {54,52};
Line(60) = {50,52};
Line(57) = {48,50};
Line(39) = {35,38};
Line(43) = {38,40};
Line(41) = {36,40};
Line(37) = {35,36};
Line(20) = {3,19};
Line(18) = {5,17};
Line(14) = {0,13};
Line(16) = {1,15};
Line(31) = {13,19};
Line(28) = {19,17};
Line(25) = {15,17};
Line(22) = {13,15};
Line(4) = {0,3};
Line(8) = {3,5};
Line(6) = {1,5};
Line(2) = {0,1};
Line Loop(65) = {39,55,-66,-49};
Line Loop(62) = {43,53,-63,-55};
Line Loop(59) = {41,53,-60,-51};
Line Loop(56) = {37,51,-57,-49};
Line Loop(68) = {57,60,-63,-66};
Line Loop(42) = {37,41,-43,-39};
Line Loop(30) = {4,20,-31,-14};
Line Loop(27) = {8,18,-28,-20};
Line Loop(24) = {6,18,-25,-16};
Line Loop(21) = {2,16,-22,-14};
Line Loop(33) = {22,25,-28,-31};
Line Loop(7) = {2,6,-8,-4};
Plane Surface(67) = {65};
Plane Surface(64) = {62};
Plane Surface(61) = {59};
Plane Surface(58) = {56};
Plane Surface(45) = {68};
Plane Surface(44) = {42};
Plane Surface(32) = {30};
Plane Surface(29) = {27};
Plane Surface(26) = {24};
Plane Surface(23) = {21};
Plane Surface(10) = {33};
Plane Surface(9) = {7};
Surface Loop(46) = {-44,45,58,61,-64,-67};
Surface Loop(11) = {-9,10,23,26,-29,-32};
Volume(34) = {11,46};
Physical Point(54) = {54};
Physical Point(52) = {52};
Physical Point(50) = {50};
Physical Point(48) = {48};
Physical Point(38) = {38};
Physical Point(40) = {40};
Physical Point(36) = {36};
Physical Point(35) = {35};
Physical Point(19) = {19};
Physical Point(17) = {17};
Physical Point(15) = {15};
Physical Point(13) = {13};
Physical Point(3) = {3};
Physical Point(5) = {5};
Physical Point(1) = {1};
Physical Point(0) = {0};
Physical Line(55) = {55};
Physical Line(53) = {53};
Physical Line(49) = {49};
Physical Line(51) = {51};
Physical Line(66) = {66};
Physical Line(63) = {63};
Physical Line(60) = {60};
Physical Line(57) = {57};
Physical Line(39) = {39};
Physical Line(43) = {43};
Physical Line(41) = {41};
Physical Line(37) = {37};
Physical Line(20) = {20};
Physical Line(18) = {18};
Physical Line(14) = {14};
Physical Line(16) = {16};
Physical Line(31) = {31};
Physical Line(28) = {28};
Physical Line(25) = {25};
Physical Line(22) = {22};
Physical Line(4) = {4};
Physical Line(8) = {8};
Physical Line(6) = {6};
Physical Line(2) = {2};
Physical Surface(67) = {67};
Physical Surface(64) = {64};
Physical Surface(61) = {61};
Physical Surface(58) = {58};
Physical Surface(45) = {45};
Physical Surface(44) = {44};
Physical Surface(32) = {32};
Physical Surface(29) = {29};
Physical Surface(26) = {26};
Physical Surface(23) = {23};
Physical Surface(10) = {10};
Physical Surface(9) = {9};
Physical Volume(34) = {34};
