Point(19) = {0.000000,1.000000,1.000000,0.100000};
Point(17) = {1.000000,1.000000,1.000000,0.100000};
Point(15) = {1.000000,0.000000,1.000000,0.100000};
Point(13) = {0.000000,0.000000,1.000000,0.100000};
Point(3) = {0.000000,1.000000,0.000000,0.100000};
Point(5) = {1.000000,1.000000,0.000000,0.100000};
Point(1) = {1.000000,0.000000,0.000000,0.100000};
Point(0) = {0.000000,0.000000,0.000000,0.100000};
Line(20) = {3,19};
Line(18) = {5,17};
Line(14) = {0,13};
Line(16) = {1,15};
Line(31) = {13,19};
Line(28) = {19,17};
Line(25) = {15,17};
Line(22) = {13,15};
Line(4) = {0,3};
Line(8) = {3,5};
Line(6) = {1,5};
Line(2) = {0,1};
Line Loop(30) = {4,20,-31,-14};
Line Loop(27) = {8,18,-28,-20};
Line Loop(24) = {6,18,-25,-16};
Line Loop(21) = {2,16,-22,-14};
Line Loop(33) = {22,25,-28,-31};
Line Loop(7) = {2,6,-8,-4};
Plane Surface(32) = {30};
Plane Surface(29) = {27};
Plane Surface(26) = {24};
Plane Surface(23) = {21};
Plane Surface(10) = {33};
Plane Surface(9) = {7};
Surface Loop(11) = {-9,10,23,26,-29,-32};
Volume(34) = {11};
Physical Point(19) = {19};
Physical Point(17) = {17};
Physical Point(15) = {15};
Physical Point(13) = {13};
Physical Point(3) = {3};
Physical Point(5) = {5};
Physical Point(1) = {1};
Physical Point(0) = {0};
Physical Line(20) = {20};
Physical Line(18) = {18};
Physical Line(14) = {14};
Physical Line(16) = {16};
Physical Line(31) = {31};
Physical Line(28) = {28};
Physical Line(25) = {25};
Physical Line(22) = {22};
Physical Line(4) = {4};
Physical Line(8) = {8};
Physical Line(6) = {6};
Physical Line(2) = {2};
Physical Surface(32) = {32};
Physical Surface(29) = {29};
Physical Surface(26) = {26};
Physical Surface(23) = {23};
Physical Surface(10) = {10};
Physical Surface(9) = {9};
Physical Volume(34) = {34};
