Point(44) = {0.333333,0.666667,0.666667,0.100000};
Point(46) = {0.666667,0.666667,0.666667,0.100000};
Point(48) = {0.666667,0.333333,0.666667,0.100000};
Point(50) = {0.333333,0.333333,0.666667,0.100000};
Point(37) = {0.333333,0.666667,0.333333,0.100000};
Point(39) = {0.666667,0.666667,0.333333,0.100000};
Point(35) = {0.666667,0.333333,0.333333,0.100000};
Point(34) = {0.333333,0.333333,0.333333,0.100000};
Point(10) = {0.000000,1.000000,1.000000,0.100000};
Point(12) = {1.000000,1.000000,1.000000,0.100000};
Point(14) = {1.000000,0.000000,1.000000,0.100000};
Point(16) = {0.000000,0.000000,1.000000,0.100000};
Point(3) = {0.000000,1.000000,0.000000,0.100000};
Point(5) = {1.000000,1.000000,0.000000,0.100000};
Point(1) = {1.000000,0.000000,0.000000,0.100000};
Point(0) = {0.000000,0.000000,0.000000,0.100000};
Line(45) = {37,44};
Line(47) = {39,46};
Line(51) = {34,50};
Line(49) = {35,48};
Line(53) = {50,44};
Line(56) = {44,46};
Line(59) = {48,46};
Line(62) = {50,48};
Line(38) = {34,37};
Line(42) = {37,39};
Line(40) = {35,39};
Line(36) = {34,35};
Line(11) = {3,10};
Line(13) = {5,12};
Line(17) = {0,16};
Line(15) = {1,14};
Line(19) = {16,10};
Line(22) = {10,12};
Line(25) = {14,12};
Line(28) = {16,14};
Line(4) = {0,3};
Line(8) = {3,5};
Line(6) = {1,5};
Line(2) = {0,1};
Line Loop(52) = {38,45,-53,-51};
Line Loop(55) = {42,47,-56,-45};
Line Loop(58) = {40,47,-59,-49};
Line Loop(61) = {36,49,-62,-51};
Line Loop(66) = {62,59,-56,-53};
Line Loop(41) = {36,40,-42,-38};
Line Loop(18) = {4,11,-19,-17};
Line Loop(21) = {8,13,-22,-11};
Line Loop(24) = {6,13,-25,-15};
Line Loop(27) = {2,15,-28,-17};
Line Loop(32) = {28,25,-22,-19};
Line Loop(7) = {2,6,-8,-4};
Plane Surface(54) = {52};
Plane Surface(57) = {55};
Plane Surface(60) = {58};
Plane Surface(63) = {61};
Plane Surface(64) = {66};
Plane Surface(43) = {41};
Plane Surface(20) = {18};
Plane Surface(23) = {21};
Plane Surface(26) = {24};
Plane Surface(29) = {27};
Plane Surface(30) = {32};
Plane Surface(9) = {7};
Surface Loop(65) = {-43,64,63,60,-57,-54};
Surface Loop(31) = {-9,30,29,26,-23,-20};
Volume(33) = {31,65};
Physical Point(44) = {44};
Physical Point(46) = {46};
Physical Point(48) = {48};
Physical Point(50) = {50};
Physical Point(37) = {37};
Physical Point(39) = {39};
Physical Point(35) = {35};
Physical Point(34) = {34};
Physical Point(10) = {10};
Physical Point(12) = {12};
Physical Point(14) = {14};
Physical Point(16) = {16};
Physical Point(3) = {3};
Physical Point(5) = {5};
Physical Point(1) = {1};
Physical Point(0) = {0};
Physical Line(45) = {45};
Physical Line(47) = {47};
Physical Line(51) = {51};
Physical Line(49) = {49};
Physical Line(53) = {53};
Physical Line(56) = {56};
Physical Line(59) = {59};
Physical Line(62) = {62};
Physical Line(38) = {38};
Physical Line(42) = {42};
Physical Line(40) = {40};
Physical Line(36) = {36};
Physical Line(11) = {11};
Physical Line(13) = {13};
Physical Line(17) = {17};
Physical Line(15) = {15};
Physical Line(19) = {19};
Physical Line(22) = {22};
Physical Line(25) = {25};
Physical Line(28) = {28};
Physical Line(4) = {4};
Physical Line(8) = {8};
Physical Line(6) = {6};
Physical Line(2) = {2};
Physical Surface(54) = {54};
Physical Surface(57) = {57};
Physical Surface(60) = {60};
Physical Surface(63) = {63};
Physical Surface(64) = {64};
Physical Surface(43) = {43};
Physical Surface(20) = {20};
Physical Surface(23) = {23};
Physical Surface(26) = {26};
Physical Surface(29) = {29};
Physical Surface(30) = {30};
Physical Surface(9) = {9};
Physical Volume(33) = {33};
