Point(53) = {0.333333,0.666667,0.666667,0.100000};
Point(51) = {0.666667,0.666667,0.666667,0.100000};
Point(49) = {0.666667,0.333333,0.666667,0.100000};
Point(47) = {0.333333,0.333333,0.666667,0.100000};
Point(37) = {0.333333,0.666667,0.333333,0.100000};
Point(39) = {0.666667,0.666667,0.333333,0.100000};
Point(35) = {0.666667,0.333333,0.333333,0.100000};
Point(34) = {0.333333,0.333333,0.333333,0.100000};
Point(19) = {0.000000,1.000000,1.000000,0.100000};
Point(17) = {1.000000,1.000000,1.000000,0.100000};
Point(15) = {1.000000,0.000000,1.000000,0.100000};
Point(13) = {0.000000,0.000000,1.000000,0.100000};
Point(3) = {0.000000,1.000000,0.000000,0.100000};
Point(5) = {1.000000,1.000000,0.000000,0.100000};
Point(1) = {1.000000,0.000000,0.000000,0.100000};
Point(0) = {0.000000,0.000000,0.000000,0.100000};
Line(54) = {37,53};
Line(52) = {39,51};
Line(48) = {34,47};
Line(50) = {35,49};
Line(65) = {47,53};
Line(62) = {53,51};
Line(59) = {49,51};
Line(56) = {47,49};
Line(38) = {34,37};
Line(42) = {37,39};
Line(40) = {35,39};
Line(36) = {34,35};
Line(20) = {3,19};
Line(18) = {5,17};
Line(14) = {0,13};
Line(16) = {1,15};
Line(31) = {13,19};
Line(28) = {19,17};
Line(25) = {15,17};
Line(22) = {13,15};
Line(4) = {0,3};
Line(8) = {3,5};
Line(6) = {1,5};
Line(2) = {0,1};
Line Loop(64) = {38,54,-65,-48};
Line Loop(61) = {42,52,-62,-54};
Line Loop(58) = {40,52,-59,-50};
Line Loop(55) = {36,50,-56,-48};
Line Loop(46) = {56,59,-62,-65};
Line Loop(41) = {36,40,-42,-38};
Line Loop(30) = {4,20,-31,-14};
Line Loop(27) = {8,18,-28,-20};
Line Loop(24) = {6,18,-25,-16};
Line Loop(21) = {2,16,-22,-14};
Line Loop(12) = {22,25,-28,-31};
Line Loop(7) = {2,6,-8,-4};
Plane Surface(66) = {64};
Plane Surface(63) = {61};
Plane Surface(60) = {58};
Plane Surface(57) = {55};
Plane Surface(44) = {46};
Plane Surface(43) = {41};
Plane Surface(32) = {30};
Plane Surface(29) = {27};
Plane Surface(26) = {24};
Plane Surface(23) = {21};
Plane Surface(10) = {12};
Plane Surface(9) = {7};
Surface Loop(45) = {-43,44,57,60,-63,-66};
Surface Loop(11) = {-9,10,23,26,-29,-32};
Volume(33) = {11,45};
Physical Point(53) = {53};
Physical Point(51) = {51};
Physical Point(49) = {49};
Physical Point(47) = {47};
Physical Point(37) = {37};
Physical Point(39) = {39};
Physical Point(35) = {35};
Physical Point(34) = {34};
Physical Point(19) = {19};
Physical Point(17) = {17};
Physical Point(15) = {15};
Physical Point(13) = {13};
Physical Point(3) = {3};
Physical Point(5) = {5};
Physical Point(1) = {1};
Physical Point(0) = {0};
Physical Line(54) = {54};
Physical Line(52) = {52};
Physical Line(48) = {48};
Physical Line(50) = {50};
Physical Line(65) = {65};
Physical Line(62) = {62};
Physical Line(59) = {59};
Physical Line(56) = {56};
Physical Line(38) = {38};
Physical Line(42) = {42};
Physical Line(40) = {40};
Physical Line(36) = {36};
Physical Line(20) = {20};
Physical Line(18) = {18};
Physical Line(14) = {14};
Physical Line(16) = {16};
Physical Line(31) = {31};
Physical Line(28) = {28};
Physical Line(25) = {25};
Physical Line(22) = {22};
Physical Line(4) = {4};
Physical Line(8) = {8};
Physical Line(6) = {6};
Physical Line(2) = {2};
Physical Surface(66) = {66};
Physical Surface(63) = {63};
Physical Surface(60) = {60};
Physical Surface(57) = {57};
Physical Surface(44) = {44};
Physical Surface(43) = {43};
Physical Surface(32) = {32};
Physical Surface(29) = {29};
Physical Surface(26) = {26};
Physical Surface(23) = {23};
Physical Surface(10) = {10};
Physical Surface(9) = {9};
Physical Volume(33) = {33};
