Point(20) = {0.000000,0.000000,1.000000,0.100000};
Point(24) = {0.000000,0.000000,1.000000,0.100000};
Point(11) = {0.000000,-1.000000,1.000000,0.100000};
Point(28) = {0.000000,0.000000,1.000000,0.100000};
Point(13) = {-1.000000,-0.000000,1.000000,0.100000};
Point(32) = {0.000000,0.000000,1.000000,0.100000};
Point(15) = {-0.000000,1.000000,1.000000,0.100000};
Point(17) = {1.000000,0.000000,1.000000,0.100000};
Point(4) = {0.000000,-1.000000,0.000000,0.100000};
Point(3) = {-1.000000,-0.000000,0.000000,0.100000};
Point(0) = {0.000000,0.000000,0.000000,0.100000};
Point(2) = {-0.000000,1.000000,0.000000,0.100000};
Point(1) = {1.000000,0.000000,0.000000,0.100000};
Line(12) = {4,11};
Line(14) = {3,13};
Line(18) = {1,17};
Line(16) = {2,15};
Circle(21) = {11,20,17};
Circle(25) = {13,24,11};
Circle(29) = {15,28,13};
Circle(33) = {17,32,15};
Circle(9) = {4,0,1};
Circle(8) = {3,0,4};
Circle(7) = {2,0,3};
Circle(6) = {1,0,2};
Line Loop(19) = {9,18,-21,-12};
Line Loop(23) = {8,12,-25,-14};
Line Loop(27) = {7,14,-29,-16};
Line Loop(31) = {6,16,-33,-18};
Line Loop(37) = {33,29,25,21};
Line Loop(5) = {6,7,8,9};
Ruled Surface(22) = {19};
Ruled Surface(26) = {23};
Ruled Surface(30) = {27};
Ruled Surface(34) = {31};
Plane Surface(35) = {37};
Plane Surface(10) = {5};
Surface Loop(36) = {-10,35,34,30,26,22};
Volume(38) = {36};
Physical Point(11) = {11};
Physical Point(13) = {13};
Physical Point(15) = {15};
Physical Point(17) = {17};
Physical Point(4) = {4};
Physical Point(3) = {3};
Physical Point(2) = {2};
Physical Point(1) = {1};
Physical Line(12) = {12};
Physical Line(14) = {14};
Physical Line(18) = {18};
Physical Line(16) = {16};
Physical Line(21) = {21};
Physical Line(25) = {25};
Physical Line(29) = {29};
Physical Line(33) = {33};
Physical Line(9) = {9};
Physical Line(8) = {8};
Physical Line(7) = {7};
Physical Line(6) = {6};
Physical Surface(22) = {22};
Physical Surface(26) = {26};
Physical Surface(30) = {30};
Physical Surface(34) = {34};
Physical Surface(35) = {35};
Physical Surface(10) = {10};
Physical Volume(38) = {38};
