Point(35) = {0.000000,0.000000,1.000000,0.100000};
Point(31) = {0.000000,0.000000,1.000000,0.100000};
Point(20) = {0.000000,-1.000000,1.000000,0.100000};
Point(27) = {0.000000,0.000000,1.000000,0.100000};
Point(18) = {-1.000000,-0.000000,1.000000,0.100000};
Point(23) = {0.000000,0.000000,1.000000,0.100000};
Point(16) = {-0.000000,1.000000,1.000000,0.100000};
Point(14) = {1.000000,0.000000,1.000000,0.100000};
Point(4) = {0.000000,-1.000000,0.000000,0.100000};
Point(3) = {-1.000000,-0.000000,0.000000,0.100000};
Point(0) = {0.000000,0.000000,0.000000,0.100000};
Point(2) = {-0.000000,1.000000,0.000000,0.100000};
Point(1) = {1.000000,0.000000,0.000000,0.100000};
Line(21) = {4,20};
Line(19) = {3,18};
Line(15) = {1,14};
Line(17) = {2,16};
Circle(36) = {20,35,14};
Circle(32) = {18,31,20};
Circle(28) = {16,27,18};
Circle(24) = {14,23,16};
Circle(9) = {4,0,1};
Circle(8) = {3,0,4};
Circle(7) = {2,0,3};
Circle(6) = {1,0,2};
Line Loop(34) = {9,15,-36,-21};
Line Loop(30) = {8,21,-32,-19};
Line Loop(26) = {7,19,-28,-17};
Line Loop(22) = {6,17,-24,-15};
Line Loop(38) = {24,28,32,36};
Line Loop(5) = {6,7,8,9};
Ruled Surface(37) = {34};
Ruled Surface(33) = {30};
Ruled Surface(29) = {26};
Ruled Surface(25) = {22};
Plane Surface(11) = {38};
Plane Surface(10) = {5};
Surface Loop(12) = {-10,11,25,29,33,37};
Volume(39) = {12};
Physical Point(20) = {20};
Physical Point(18) = {18};
Physical Point(16) = {16};
Physical Point(14) = {14};
Physical Point(4) = {4};
Physical Point(3) = {3};
Physical Point(2) = {2};
Physical Point(1) = {1};
Physical Line(21) = {21};
Physical Line(19) = {19};
Physical Line(15) = {15};
Physical Line(17) = {17};
Physical Line(36) = {36};
Physical Line(32) = {32};
Physical Line(28) = {28};
Physical Line(24) = {24};
Physical Line(9) = {9};
Physical Line(8) = {8};
Physical Line(7) = {7};
Physical Line(6) = {6};
Physical Surface(37) = {37};
Physical Surface(33) = {33};
Physical Surface(29) = {29};
Physical Surface(25) = {25};
Physical Surface(11) = {11};
Physical Surface(10) = {10};
Physical Volume(39) = {39};
