Point(23) = {0.500000,1.500000,1.000000,0.100000};
Point(11) = {0.000000,1.000000,1.000000,0.100000};
Point(13) = {1.000000,1.000000,1.000000,0.100000};
Point(15) = {1.000000,0.000000,1.000000,0.100000};
Point(17) = {0.000000,0.000000,1.000000,0.100000};
Point(3) = {0.500000,1.500000,0.000000,0.100000};
Point(4) = {0.000000,1.000000,0.000000,0.100000};
Point(2) = {1.000000,1.000000,0.000000,0.100000};
Point(1) = {1.000000,0.000000,0.000000,0.100000};
Point(0) = {0.000000,0.000000,0.000000,0.100000};
Line(12) = {4,11};
Line(14) = {2,13};
Line(18) = {0,17};
Line(16) = {1,15};
Line(20) = {11,17};
Spline(24) = {13,23,11};
Line(27) = {15,13};
Line(30) = {17,15};
Line(9) = {4,0};
Spline(8) = {2,3,4};
Line(7) = {1,2};
Line(6) = {0,1};
Line Loop(19) = {9,18,-20,-12};
Line Loop(22) = {8,12,-24,-14};
Line Loop(26) = {7,14,-27,-16};
Line Loop(29) = {6,16,-30,-18};
Line Loop(34) = {30,27,24,20};
Line Loop(5) = {6,7,8,9};
Plane Surface(21) = {19};
Ruled Surface(25) = {22};
Plane Surface(28) = {26};
Plane Surface(31) = {29};
Plane Surface(32) = {34};
Plane Surface(10) = {5};
Surface Loop(33) = {-10,32,31,28,25,21};
Volume(35) = {33};
Physical Point(11) = {11};
Physical Point(13) = {13};
Physical Point(15) = {15};
Physical Point(17) = {17};
Physical Point(4) = {4};
Physical Point(2) = {2};
Physical Point(1) = {1};
Physical Point(0) = {0};
Physical Line(12) = {12};
Physical Line(14) = {14};
Physical Line(18) = {18};
Physical Line(16) = {16};
Physical Line(20) = {20};
Physical Line(24) = {24};
Physical Line(27) = {27};
Physical Line(30) = {30};
Physical Line(9) = {9};
Physical Line(8) = {8};
Physical Line(7) = {7};
Physical Line(6) = {6};
Physical Surface(21) = {21};
Physical Surface(25) = {25};
Physical Surface(28) = {28};
Physical Surface(31) = {31};
Physical Surface(32) = {32};
Physical Surface(10) = {10};
Physical Volume(35) = {35};
