Point(40) = {0.000000,0.000000,0.200000,0.100000};
Point(44) = {0.000000,0.000000,0.200000,0.100000};
Point(23) = {0.000000,-2.000000,0.200000,0.100000};
Point(48) = {0.000000,0.000000,0.200000,0.100000};
Point(25) = {-2.000000,-0.000000,0.200000,0.100000};
Point(52) = {0.000000,0.000000,0.200000,0.100000};
Point(27) = {-0.000000,2.000000,0.200000,0.100000};
Point(29) = {2.000000,0.000000,0.200000,0.100000};
Point(4) = {0.000000,-2.000000,0.000000,0.100000};
Point(3) = {-2.000000,-0.000000,0.000000,0.100000};
Point(0) = {0.000000,0.000000,0.000000,0.100000};
Point(2) = {-0.000000,2.000000,0.000000,0.100000};
Point(1) = {2.000000,0.000000,0.000000,0.100000};
Point(56) = {0.000000,0.000000,0.200000,0.100000};
Point(60) = {0.000000,0.000000,0.200000,0.100000};
Point(31) = {0.000000,-1.000000,0.200000,0.100000};
Point(64) = {0.000000,0.000000,0.200000,0.100000};
Point(33) = {-1.000000,-0.000000,0.200000,0.100000};
Point(68) = {0.000000,0.000000,0.200000,0.100000};
Point(35) = {-0.000000,1.000000,0.200000,0.100000};
Point(37) = {1.000000,0.000000,0.200000,0.100000};
Point(15) = {0.000000,-1.000000,0.000000,0.100000};
Point(14) = {-1.000000,-0.000000,0.000000,0.100000};
Point(11) = {0.000000,0.000000,0.000000,0.100000};
Point(13) = {-0.000000,1.000000,0.000000,0.100000};
Point(12) = {1.000000,0.000000,0.000000,0.100000};
Line(24) = {4,23};
Line(26) = {3,25};
Line(30) = {1,29};
Line(28) = {2,27};
Circle(41) = {23,40,29};
Circle(45) = {25,44,23};
Circle(49) = {27,48,25};
Circle(53) = {29,52,27};
Circle(9) = {4,0,1};
Circle(8) = {3,0,4};
Circle(7) = {2,0,3};
Circle(6) = {1,0,2};
Line(32) = {15,31};
Line(34) = {14,33};
Line(38) = {12,37};
Line(36) = {13,35};
Circle(57) = {31,56,37};
Circle(61) = {33,60,31};
Circle(65) = {35,64,33};
Circle(69) = {37,68,35};
Circle(20) = {15,11,12};
Circle(19) = {14,11,15};
Circle(18) = {13,11,14};
Circle(17) = {12,11,13};
Line Loop(39) = {9,30,-41,-24};
Line Loop(43) = {8,24,-45,-26};
Line Loop(47) = {7,26,-49,-28};
Line Loop(51) = {6,28,-53,-30};
Line Loop(78) = {69,65,61,57};
Line Loop(77) = {53,49,45,41};
Line Loop(5) = {6,7,8,9};
Line Loop(55) = {20,38,-57,-32};
Line Loop(59) = {19,32,-61,-34};
Line Loop(63) = {18,34,-65,-36};
Line Loop(67) = {17,36,-69,-38};
Line Loop(73) = {69,65,61,57};
Line Loop(16) = {17,18,19,20};
Ruled Surface(42) = {39};
Ruled Surface(46) = {43};
Ruled Surface(50) = {47};
Ruled Surface(54) = {51};
Plane Surface(75) = {77,78};
Plane Surface(10) = {5,16};
Ruled Surface(58) = {55};
Ruled Surface(62) = {59};
Ruled Surface(66) = {63};
Ruled Surface(70) = {67};
Plane Surface(71) = {73};
Plane Surface(21) = {16};
Surface Loop(76) = {-10,75,54,50,46,42,-70,-66,-62,-58};
Surface Loop(72) = {-21,71,70,66,62,58};
Volume(79) = {76};
Volume(74) = {72};
Physical Point(23) = {23};
Physical Point(25) = {25};
Physical Point(27) = {27};
Physical Point(29) = {29};
Physical Point(4) = {4};
Physical Point(3) = {3};
Physical Point(2) = {2};
Physical Point(1) = {1};
Physical Point(31) = {31};
Physical Point(33) = {33};
Physical Point(35) = {35};
Physical Point(37) = {37};
Physical Point(15) = {15};
Physical Point(14) = {14};
Physical Point(13) = {13};
Physical Point(12) = {12};
Physical Line(24) = {24};
Physical Line(26) = {26};
Physical Line(30) = {30};
Physical Line(28) = {28};
Physical Line(41) = {41};
Physical Line(45) = {45};
Physical Line(49) = {49};
Physical Line(53) = {53};
Physical Line(9) = {9};
Physical Line(8) = {8};
Physical Line(7) = {7};
Physical Line(6) = {6};
Physical Line(32) = {32};
Physical Line(34) = {34};
Physical Line(38) = {38};
Physical Line(36) = {36};
Physical Line(57) = {57};
Physical Line(61) = {61};
Physical Line(65) = {65};
Physical Line(69) = {69};
Physical Line(20) = {20};
Physical Line(19) = {19};
Physical Line(18) = {18};
Physical Line(17) = {17};
Physical Surface(42) = {42};
Physical Surface(46) = {46};
Physical Surface(50) = {50};
Physical Surface(54) = {54};
Physical Surface(75) = {75};
Physical Surface(10) = {10};
Physical Surface(58) = {58};
Physical Surface(62) = {62};
Physical Surface(66) = {66};
Physical Surface(70) = {70};
Physical Surface(71) = {71};
Physical Surface(21) = {21};
Physical Volume(79) = {79};
Physical Volume(74) = {74};
